<svg xmlns="http://www.w3.org/2000/svg" xmlns:xlink="http://www.w3.org/1999/xlink" version="1.1" width="256" height="256" viewBox="0 0 256 256" xml:space="preserve">
<g style="stroke: none; stroke-width: 0; stroke-dasharray: none; stroke-linecap: butt; stroke-linejoin: miter; stroke-miterlimit: 10; fill: none; fill-rule: nonzero; opacity: 1;" transform="translate(1.4065934065934016 1.4065934065934016) scale(2.81 2.81)">
	<path d="M 84.312 22.694 h -0.335 c -0.037 -3.108 -2.573 -5.625 -5.689 -5.625 H 50.062 c -0.709 0 -1.403 -0.288 -1.904 -0.789 l -8.645 -8.645 c -1.075 -1.075 -2.505 -1.667 -4.025 -1.667 H 5.693 C 2.554 5.968 0 8.522 0 11.661 v 56.344 v 8.649 v 2.867 c 0 2.486 2.023 4.51 4.51 4.51 h 79.801 c 3.137 0 5.688 -2.552 5.688 -5.688 V 28.383 C 90 25.246 87.448 22.694 84.312 22.694 z M 6.02 28.383 v 51.139 c 0 0.832 -0.677 1.51 -1.51 1.51 S 3 80.354 3 79.521 v -2.867 v -8.649 V 11.661 c 0 -1.485 1.208 -2.693 2.693 -2.693 h 29.794 c 0.719 0 1.396 0.28 1.904 0.789 l 8.645 8.645 c 1.06 1.06 2.526 1.667 4.025 1.667 h 28.226 c 1.461 0 2.649 1.172 2.686 2.625 H 11.708 C 8.572 22.694 6.02 25.246 6.02 28.383 z M 87 78.344 c 0 1.481 -1.206 2.688 -2.688 2.688 H 8.76 c 0.168 -0.473 0.26 -0.98 0.26 -1.51 V 28.383 c 0 -1.482 1.206 -2.688 2.688 -2.688 h 72.603 c 1.482 0 2.688 1.206 2.688 2.688 V 78.344 z" style="stroke: none; stroke-width: 1; stroke-dasharray: none; stroke-linecap: butt; stroke-linejoin: miter; stroke-miterlimit: 10; fill: rgb(0,0,0); fill-rule: nonzero; opacity: 1;" transform=" matrix(1 0 0 1 0 0) " stroke-linecap="round"/>
	<path d="M 70.023 67.563 H 25.491 c -2.979 0 -5.411 -2.54 -5.42 -5.661 c 0 -8.485 6.345 -15.35 14.145 -15.35 c 0.46 0 0.924 0.026 1.399 0.081 c 2.546 -4.637 7.107 -7.471 12.142 -7.471 c 5.035 0 9.596 2.834 12.143 7.471 c 0.475 -0.055 0.938 -0.081 1.398 -0.081 c 7.8 0 14.146 6.864 14.146 15.301 C 75.435 65.023 73.003 67.563 70.023 67.563 z M 34.216 49.553 c -6.146 0 -11.145 5.519 -11.145 12.301 c 0.004 1.512 1.09 2.71 2.42 2.71 h 44.533 c 1.33 0 2.416 -1.198 2.42 -2.671 c 0 -6.821 -5 -12.34 -11.146 -12.34 c -0.624 0 -1.264 0.066 -1.958 0.201 c -0.676 0.138 -1.361 -0.215 -1.65 -0.844 c -1.917 -4.162 -5.723 -6.748 -9.933 -6.748 c -4.209 0 -8.015 2.585 -9.932 6.747 c -0.289 0.63 -0.965 0.979 -1.65 0.846 C 35.48 49.619 34.839 49.553 34.216 49.553 z" style="stroke: none; stroke-width: 1; stroke-dasharray: none; stroke-linecap: butt; stroke-linejoin: miter; stroke-miterlimit: 10; fill: rgb(0,0,0); fill-rule: nonzero; opacity: 1;" transform=" matrix(1 0 0 1 0 0) " stroke-linecap="round"/>
</g>
</svg>